<svg width="87" height="113" viewBox="0 0 87 113" fill="none" xmlns="http://www.w3.org/2000/svg">
<path d="M4.94731 74.7573C7.12992 76.3694 1.58153 78.9441 0.557327 79.0546C-1.43019 79.2689 2.3387 72.8306 4.94731 74.7573Z" fill="white"/>
<path d="M81.0586 35.9612C79.2676 33.9228 85.2359 32.5837 86.2603 32.693C88.248 32.9052 83.1991 38.3974 81.0586 35.9612Z" fill="white"/>
<path d="M2.24547 39.158C0.0228826 42.9325 -0.933603 16.5175 7.37511 12.7852C13.1444 10.1936 25.2995 23.8032 22.8195 29.1526C21.9923 30.937 13.5987 14.5524 9.10662 16.3422C1.85379 19.2319 5.31678 33.9421 2.24547 39.158Z" fill="white"/>
<path d="M45.2067 23.0037C43.0818 26.6475 42.4889 6.37605 47.3294 1.60152C53.8564 -4.8366 64.6312 9.81804 62.2532 15.833C61.2861 18.2793 55.2204 2.23099 50.6765 3.73335C44.1237 5.89992 47.714 18.7043 45.2067 23.0037Z" fill="white"/>
<path d="M21.7309 65.6559C22.5952 66.6435 17.5985 65.581 15.5684 59.6054C13.8301 54.4891 15.4246 49.045 18.4147 44.7382C25.7058 34.2368 53.4815 20.1311 64.796 28.327C72.7063 34.0571 67.1155 45.7965 62.6676 51.6961C48.8432 70.0325 24.6083 105.03 63.2448 109.385C67.3133 109.843 58.0401 115.013 50.5818 110.632C41.3773 105.225 36.3976 97.0447 37.5486 86.3605C39.3587 69.5586 48.5279 60.153 58.5445 47.5923C61.2617 44.1849 66.4073 36.6796 62.3576 32.3206C58.9743 28.6789 49.5248 30.823 45.6119 31.7174C31.7242 34.8918 7.49077 49.3852 21.7309 65.6559Z" fill="white"/>
<path d="M6.69177 82.3775C8.24359 82.852 5.4602 87.4449 4.04917 86.437C2.18821 85.1078 6.26684 82.2476 6.69177 82.3775ZM4.50449 84.9218C4.96063 84.9218 5.33041 85.2916 5.33041 85.7477C5.33041 86.2039 4.96063 86.5736 4.50449 86.5736C4.04834 86.5736 3.67856 86.2039 3.67856 85.7477C3.67856 85.2916 4.04834 84.9218 4.50449 84.9218Z" fill="white"/>
<path d="M81.7271 41.2771C80.7089 39.0096 85.869 38.7993 86.1281 39.7071C86.472 40.9124 82.3334 42.6271 81.7271 41.2771ZM85.9682 39.5401C86.1115 39.5879 86.1816 39.7649 86.1247 39.9356C86.0678 40.1063 85.9055 40.206 85.7622 40.1582C85.6189 40.1105 85.5489 39.9334 85.6058 39.7627C85.6626 39.592 85.8249 39.4924 85.9682 39.5401Z" fill="white"/>
</svg>
